<svg width="455" height="568" viewBox="0 0 455 568" fill="none" xmlns="http://www.w3.org/2000/svg">
<path d="M3 300L92 389" stroke="#191919"/>
<circle cx="92" cy="389" r="2.5" fill="white" stroke="white"/>
<circle cx="3" cy="300" r="2.5" fill="white" stroke="white"/>
<path d="M177.765 21.4346L42.6218 120.778" stroke="#191919"/>
<path d="M205.41 164.324L43.397 120.913" stroke="#191919"/>
<path d="M204.642 164.889L178.643 20.6796" stroke="#191919"/>
<circle cx="43.9549" cy="120.804" r="3.9978" transform="rotate(98.6805 43.9549 120.804)" fill="white"/>
<circle cx="177.215" cy="22.1914" r="3.9978" transform="rotate(98.6805 177.215 22.1914)" fill="#191919"/>
<circle cx="203.867" cy="162.114" r="3.9978" transform="rotate(98.6805 203.867 162.114)" fill="#191919"/>
<path d="M416.988 426.791L297.256 394.709" stroke="#191919"/>
<path d="M347.321 508.736L297.536 395.218" stroke="#191919"/>
<path d="M346.641 508.555L417.829 426.948" stroke="#191919"/>
<circle cx="297.856" cy="395.489" r="2.9545" transform="rotate(150 297.856 395.489)" fill="white"/>
<circle cx="416.298" cy="426.823" r="2.9545" transform="rotate(150 416.298 426.823)" fill="white"/>
<circle cx="347.883" cy="506.826" r="2.9545" transform="rotate(150 347.883 506.826)" fill="white"/>
<g filter="url(#filter0_f_603_805)">
<rect x="163" y="452" width="71" height="28" rx="14" fill="white" fill-opacity="0.05"/>
</g>
<g filter="url(#filter1_f_603_805)">
<rect x="346" y="88" width="71" height="28" rx="14" fill="white" fill-opacity="0.05"/>
</g>
<rect x="80" y="297" width="71" height="28" rx="14" fill="white" fill-opacity="0.1"/>
<defs>
<filter id="filter0_f_603_805" x="159" y="448" width="79" height="36" filterUnits="userSpaceOnUse" color-interpolation-filters="sRGB">
<feFlood flood-opacity="0" result="BackgroundImageFix"/>
<feBlend mode="normal" in="SourceGraphic" in2="BackgroundImageFix" result="shape"/>
<feGaussianBlur stdDeviation="2" result="effect1_foregroundBlur_603_805"/>
</filter>
<filter id="filter1_f_603_805" x="342" y="84" width="79" height="36" filterUnits="userSpaceOnUse" color-interpolation-filters="sRGB">
<feFlood flood-opacity="0" result="BackgroundImageFix"/>
<feBlend mode="normal" in="SourceGraphic" in2="BackgroundImageFix" result="shape"/>
<feGaussianBlur stdDeviation="2" result="effect1_foregroundBlur_603_805"/>
</filter>
</defs>
</svg>
