<svg width="1538" height="603" viewBox="0 0 1538 603" fill="none" xmlns="http://www.w3.org/2000/svg">
<path d="M3 335L92 424" stroke="#191919"/>
<circle cx="92" cy="424" r="2.5" fill="white" stroke="white"/>
<circle cx="3" cy="335" r="2.5" fill="white" stroke="white"/>
<path d="M264.646 306.537L211.782 341.889" stroke="#191919"/>
<circle cx="211.782" cy="341.889" r="1.51579" transform="rotate(101.228 211.782 341.889)" fill="#191919"/>
<circle cx="264.645" cy="306.537" r="1.51579" transform="rotate(101.228 264.645 306.537)" fill="#191919"/>
<path d="M1178.73 98.5264L1089.99 152.199" stroke="#191919"/>
<circle cx="1089.99" cy="152.2" r="2.47196" transform="rotate(103.834 1089.99 152.2)" fill="#191919"/>
<circle cx="1178.73" cy="98.5269" r="2.47196" transform="rotate(103.834 1178.73 98.5269)" fill="white"/>
<path d="M1340.69 426.977L1247.15 368.623" stroke="#191919"/>
<circle cx="1247.15" cy="368.624" r="2.62767" transform="rotate(166.959 1247.15 368.624)" fill="white"/>
<circle cx="1340.69" cy="426.976" r="2.62767" transform="rotate(166.959 1340.69 426.976)" fill="white"/>
<path d="M1532.14 319.665L1382.06 310.528" stroke="#191919"/>
<circle cx="1382.06" cy="310.529" r="3.58366" transform="rotate(138.484 1382.06 310.529)" fill="white"/>
<circle cx="1532.13" cy="319.665" r="3.08366" transform="rotate(138.484 1532.13 319.665)" fill="#191919" stroke="white"/>
<path d="M177.765 56.4346L42.6218 155.778" stroke="#191919"/>
<path d="M205.41 199.324L43.397 155.913" stroke="#191919"/>
<path d="M204.642 199.889L178.643 55.6796" stroke="#191919"/>
<circle cx="43.9549" cy="155.804" r="3.9978" transform="rotate(98.6805 43.9549 155.804)" fill="white"/>
<circle cx="177.215" cy="57.1914" r="3.9978" transform="rotate(98.6805 177.215 57.1914)" fill="#191919"/>
<circle cx="203.867" cy="197.114" r="3.9978" transform="rotate(98.6805 203.867 197.114)" fill="#191919"/>
<path d="M416.988 461.791L297.256 429.709" stroke="#191919"/>
<path d="M347.321 543.736L297.536 430.218" stroke="#191919"/>
<path d="M346.641 543.555L417.829 461.948" stroke="#191919"/>
<circle cx="297.856" cy="430.489" r="2.9545" transform="rotate(150 297.856 430.489)" fill="white"/>
<circle cx="416.298" cy="461.823" r="2.9545" transform="rotate(150 416.298 461.823)" fill="white"/>
<circle cx="347.883" cy="541.826" r="2.9545" transform="rotate(150 347.883 541.826)" fill="white"/>
<path d="M1345.5 63.4321L1375.01 185.79" stroke="#191919"/>
<path d="M1452.4 85.7871L1375.33 185.292" stroke="#191919"/>
<path d="M1452.57 86.4824L1345.23 62.605" stroke="#191919"/>
<circle cx="1375.41" cy="184.874" r="3" transform="rotate(31.4418 1375.41 184.874)" fill="white"/>
<circle cx="1345.86" cy="64.0316" r="3" transform="rotate(31.4418 1345.86 64.0316)" fill="#191919"/>
<circle cx="1450.43" cy="86.2133" r="3" transform="rotate(31.4418 1450.43 86.2133)" fill="white"/>
</svg>
