<svg width="331" height="330" viewBox="0 0 331 330" fill="none" xmlns="http://www.w3.org/2000/svg">
<path d="M222.04 262.351C219.565 268.401 202.955 267.631 201.03 272.801C199.105 277.971 216.045 277.476 215.495 283.966C214.945 290.456 204.715 291.446 186.345 292.491C167.975 293.536 163.905 298.376 145.535 304.371C127.165 310.366 119.08 302.611 108.795 297.001C98.5649 291.446 78.9299 301.676 72.7699 293.041C66.6099 284.351 83.3849 281.271 98.1799 277.916C113.03 274.506 106.32 272.911 105.935 265.706C105.88 264.221 106.32 263.066 107.145 262.131C110.5 258.501 120.235 258.446 131.895 258.666C146.58 258.996 150.265 254.101 170.725 254.541C189.59 254.926 219.18 256.081 221.875 260.976C222.205 261.416 222.26 261.856 222.04 262.351Z" fill="#99ADF9"/>
<path d="M250.75 273.075C250.585 273.405 250.31 273.735 249.98 274.12C247.615 276.705 239.86 278.3 233.645 278.41C225.945 278.465 217.916 277.97 217.641 273.295C217.421 268.62 237.111 268.345 243.985 269.115C249.925 269.665 251.795 271.04 250.75 273.075Z" fill="#99ADF9"/>
<path d="M98.5645 272.305C98.4545 272.58 98.2345 272.855 97.9595 273.13C96.0895 275.165 89.9845 276.485 85.0895 276.54C79.0395 276.595 72.6595 276.21 72.4945 272.415C72.3295 268.675 87.8395 268.455 93.2295 269.06C97.9045 269.555 99.4445 270.655 98.5645 272.305Z" fill="#99ADF9"/>
<path d="M197.07 301.621C191.68 303.766 171.55 303.876 171.605 301.236C171.605 300.906 171.715 300.576 171.935 300.301C173.42 298.211 179.58 297.056 185.135 296.836C191.68 296.616 196.135 297.331 198.115 298.376C199.93 299.366 199.655 300.576 197.07 301.621Z" fill="#99ADF9"/>
<path d="M145.699 295.076C140.749 296.891 125.019 296.451 125.129 293.206C125.129 292.821 125.239 292.436 125.404 292.051C126.724 289.521 130.849 288.586 135.579 288.421C141.079 288.201 145.589 289.081 147.404 290.126C149.714 291.391 149.769 293.536 145.699 295.076Z" fill="#7C99F2"/>
<path d="M206.695 264.22C203.78 265.65 193.165 265.54 193.22 263.67C193.22 263.45 193.275 263.23 193.385 263.01C194.21 261.58 197.455 260.81 200.425 260.7C203.89 260.59 206.255 261.14 207.245 261.91C208.235 262.625 208.07 263.505 206.695 264.22Z" fill="#7C99F2"/>
<path d="M203.835 283.911C201.47 285.066 192.78 284.956 192.835 283.471C192.835 283.306 192.89 283.086 193 282.921C193.66 281.766 196.355 281.106 198.775 281.051C201.635 280.941 203.56 281.436 204.385 282.041C205.1 282.646 204.99 283.361 203.835 283.911Z" fill="#7C99F2"/>
<path d="M177.545 282.976C152.575 289.851 115.12 278.411 115.45 271.866C115.505 271.041 115.835 270.326 116.44 269.666C120.73 264.936 138.22 263.616 154.115 264.551C172.76 265.706 185.355 268.676 190.855 271.866C195.86 274.671 190.305 279.456 177.545 282.976Z" fill="#7C99F2"/>
<path d="M114.13 284.791C111.765 286.111 102.965 286.001 103.075 284.296C103.075 284.076 103.13 283.911 103.24 283.691C103.9 282.371 106.595 281.656 109.015 281.546C111.875 281.436 113.8 281.931 114.625 282.646C115.395 283.361 115.285 284.186 114.13 284.791Z" fill="#7C99F2"/>
<path d="M194.32 91.5202C194.32 91.5202 192.89 87.0652 197.84 86.7902C202.79 86.5702 197.84 79.2552 202.79 75.0202C207.74 70.7852 213.625 72.6552 213.845 78.3202C214.065 83.9852 213.13 87.5052 213.845 88.9352C214.56 90.3652 216.65 86.3502 219.235 89.1552C221.82 91.9602 205.815 146.135 205.815 146.135L197.125 143.99L194.32 91.5202Z" fill="#D2E9FF"/>
<path d="M210.049 100.155C207.684 101.255 202.844 133.595 206.859 130.405C207.794 129.69 216.099 97.3503 210.049 100.155Z" fill="#E3F0FF"/>
<path d="M251.024 65.9997C250.804 67.5397 250.419 68.9697 250.034 70.2347C246.184 81.8947 235.679 82.3347 235.514 83.9297C235.349 85.6897 243.104 91.5197 235.844 98.6147C228.584 105.71 213.789 96.6897 209.884 96.3597C204.384 95.9197 192.944 105.71 185.079 95.5347C180.019 88.9897 188.159 85.3047 186.289 83.4897C184.419 81.6747 169.789 81.3447 169.789 64.8997C169.789 64.5697 169.789 64.2397 169.789 63.9097C170.339 47.4647 184.969 48.6197 185.684 45.3747C186.399 42.1297 186.234 23.0997 209.334 22.2747C232.489 21.4497 231.774 44.8797 233.864 45.9797C236.064 47.1347 253.499 50.1597 251.024 65.9997Z" fill="#E3F0FF"/>
<path d="M232.654 79.6949C237.604 77.6599 245.029 74.0299 249.979 70.2349C246.129 81.8949 235.624 82.3349 235.459 83.9299C235.294 85.6899 243.049 91.5199 235.789 98.6149C228.529 105.71 213.734 96.6899 209.829 96.3599C204.329 95.9199 192.889 105.71 185.024 95.5349C179.964 88.9899 188.104 85.3049 186.234 83.4899C184.364 81.6749 169.734 81.3449 169.734 64.8999C170.999 67.4849 173.639 71.1699 179.304 73.7549C188.819 78.0999 195.529 73.2599 198.884 77.9349C202.239 82.6099 195.199 85.5249 198.334 88.2749C201.524 91.0249 206.474 84.0949 214.394 87.7799C222.369 91.4649 227.319 93.8849 230.454 90.5299C233.754 87.1199 225.614 82.6099 232.654 79.6949Z" fill="#D2E9FF"/>
<path d="M195.09 56.3198C195.09 56.3198 195.035 56.2648 194.87 56.1548C194.705 56.0448 194.54 55.8798 194.265 55.6048C193.77 55.1098 193.11 54.3398 192.56 53.2948C192.285 52.7998 192.01 52.1948 191.79 51.5348C191.57 50.8748 191.46 50.1598 191.35 49.3898C191.295 48.6198 191.295 47.8498 191.405 47.0798C191.46 46.6948 191.515 46.3098 191.625 45.9248C191.68 45.7048 191.68 45.5948 191.79 45.2648L191.955 44.7148C192.12 44.0548 192.56 43.2298 193 42.5148C193.44 41.8548 194.045 41.1948 194.65 40.6998C195.31 40.2048 195.97 39.8198 196.63 39.5448C197.29 39.2698 198.005 39.1048 198.61 38.9948C199.215 38.8848 199.82 38.8848 200.315 38.8848C200.81 38.8848 201.25 38.8848 201.635 38.9398C202.02 38.9948 202.295 38.9948 202.46 39.0498C202.68 39.1048 202.79 39.1048 202.79 39.1048C203.505 39.2698 203.945 39.9298 203.78 40.6448C203.615 41.3598 202.955 41.7998 202.24 41.6348H202.185H202.075C202.075 41.6348 202.02 41.6348 201.91 41.5798C201.745 41.5248 201.58 41.4698 201.25 41.4698C200.975 41.4148 200.645 41.3598 200.205 41.3598C199.82 41.3598 199.38 41.3048 198.885 41.3598C198.39 41.4148 197.895 41.4698 197.4 41.6898C196.905 41.8548 196.355 42.0748 195.915 42.4048C195.42 42.7348 194.98 43.1748 194.595 43.6698C194.21 44.1648 193.935 44.6048 193.66 45.3748L193.44 45.8698L193.33 46.3098C193.22 46.6398 193.11 46.9698 193.11 47.2998C193 47.9598 192.945 48.6198 192.945 49.2248C192.945 49.8298 193.055 50.4898 193.165 51.0398C193.275 51.5898 193.495 52.1398 193.715 52.5798C194.155 53.5148 194.705 54.2298 195.09 54.6698C195.31 54.8898 195.475 55.0548 195.585 55.1648C195.695 55.2748 195.75 55.3298 195.75 55.3298H195.805C196.025 55.5498 196.08 55.9348 195.86 56.1548C195.695 56.4298 195.365 56.4848 195.09 56.3198Z" fill="#D2E9FF"/>
<path d="M201.744 40.1497C201.744 40.1497 201.744 40.0397 201.799 39.7647C201.854 39.5447 201.964 39.2147 202.074 38.7747C202.349 37.9497 202.789 36.7947 203.724 35.5297C204.164 34.9247 204.769 34.2647 205.484 33.7697C206.199 33.2197 207.024 32.7797 207.904 32.3947C208.344 32.2297 208.839 32.1197 209.334 31.9547C209.829 31.8447 210.324 31.7897 210.819 31.7347C211.314 31.6797 211.809 31.6797 212.304 31.6797H212.689H212.744H212.909H212.964H213.129L213.789 31.7347C214.009 31.7897 214.174 31.7897 214.449 31.8447L215.274 32.0647C215.549 32.1747 215.824 32.2297 216.099 32.3397L216.814 32.6697C217.309 32.8897 217.749 33.1647 218.134 33.4947C218.574 33.7697 218.904 34.1547 219.289 34.4847C220.664 35.9147 221.434 37.6197 221.874 38.9947C222.314 40.4247 222.534 41.6347 222.644 42.4597C222.699 42.8997 222.699 43.2297 222.754 43.4497C222.754 43.7247 222.754 43.8347 222.754 43.8347C222.809 44.8247 222.039 45.6497 221.049 45.6497C220.059 45.7047 219.234 44.9347 219.234 43.9447V43.8897V43.7797C219.234 43.7797 219.234 43.7247 219.234 43.5597C219.234 43.3947 219.234 43.1197 219.179 42.7897C219.124 42.1297 219.014 41.0847 218.684 39.9847C218.354 38.8847 217.804 37.6197 216.924 36.6297C216.704 36.4097 216.484 36.1347 216.209 35.9147C215.934 35.6947 215.659 35.4747 215.384 35.3647L214.944 35.0897C214.779 35.0347 214.669 34.9797 214.504 34.9247L214.064 34.7597C213.899 34.7047 213.624 34.7047 213.459 34.6497L212.799 34.5397H212.634H212.579C212.469 34.5397 212.744 34.5397 212.689 34.5397H212.634H212.359C211.974 34.5397 211.589 34.4847 211.204 34.5397C210.819 34.5947 210.434 34.5947 210.104 34.6497C209.774 34.7597 209.389 34.8147 209.059 34.9247C208.399 35.1447 207.794 35.4197 207.299 35.8047C206.804 36.1347 206.364 36.5747 206.034 37.0147C205.319 37.8947 204.934 38.7747 204.714 39.4347C204.604 39.7647 204.549 39.9847 204.494 40.1497C204.439 40.3147 204.439 40.3697 204.439 40.3697V40.4797C204.274 41.1947 203.614 41.5797 202.899 41.4697C202.019 41.4697 201.634 40.8097 201.744 40.1497Z" fill="#D2E9FF"/>
<path d="M229.08 48.2344C229.08 48.2344 229.465 48.2344 230.07 48.2894C230.675 48.3444 231.5 48.4544 232.49 48.7294C233.48 49.0044 234.635 49.4444 235.735 50.3244C236.285 50.7644 236.78 51.2594 237.22 51.8644C237.44 52.1944 237.605 52.4694 237.77 52.8544L237.99 53.3494L238.1 53.8994C238.265 54.4494 238.43 55.2744 238.43 55.9344C238.485 56.6494 238.43 57.3094 238.265 57.9144C237.99 59.1794 237.495 60.2794 236.945 61.1044C236.395 61.9294 235.79 62.5344 235.405 62.9194C234.965 63.3044 234.69 63.5244 234.69 63.5244C234.415 63.7444 233.975 63.6894 233.755 63.4144C233.535 63.1394 233.59 62.6994 233.865 62.4794C233.81 62.5344 234.8 61.7644 235.625 60.2794C236.065 59.5644 236.395 58.6294 236.505 57.5844C236.56 57.0894 236.56 56.5394 236.505 56.0444C236.45 55.4944 236.34 55.1094 236.12 54.4494L236.01 54.0644L235.845 53.7344C235.735 53.5144 235.57 53.2944 235.46 53.1294C235.185 52.7444 234.8 52.4694 234.415 52.1944C233.59 51.6994 232.71 51.3694 231.885 51.2044C231.06 51.0394 230.4 50.9844 229.905 50.9844C229.41 50.9844 229.19 50.9844 229.19 50.9844C228.42 50.9844 227.76 50.3794 227.76 49.6094C227.705 48.8944 228.31 48.2344 229.08 48.2344Z" fill="#D2E9FF"/>
<path d="M192.559 54.9445C192.559 54.9445 192.504 54.9445 192.449 54.9445C192.339 54.9445 192.229 54.9995 192.064 55.0545C191.679 55.1645 191.184 55.3295 190.634 55.7145C190.359 55.8795 190.084 56.0995 189.864 56.3745C189.589 56.6495 189.369 56.9795 189.204 57.3645C189.039 57.7495 188.874 58.1345 188.764 58.6295C188.654 59.0695 188.599 59.6195 188.599 60.0595C188.599 60.6645 188.654 61.0495 188.764 61.4895C188.874 61.9295 189.039 62.3695 189.314 62.7545C189.809 63.5245 190.469 64.0745 191.129 64.4595C191.789 64.8445 192.394 65.0645 192.834 65.1745C193.274 65.2845 193.549 65.3395 193.494 65.3395C193.769 65.3395 193.989 65.6145 193.934 65.8895C193.934 66.1645 193.659 66.3845 193.384 66.3295C193.384 66.3295 193.054 66.3295 192.559 66.2195C192.064 66.1095 191.349 65.9445 190.469 65.6145C189.644 65.2295 188.709 64.6245 187.939 63.6895C187.554 63.1945 187.279 62.6445 187.059 62.0945C186.949 61.8195 186.894 61.4345 186.784 61.1595C186.674 60.8295 186.674 60.6095 186.619 60.2795C186.619 60.1145 186.564 60.0595 186.564 59.7845V59.3445C186.564 59.0145 186.564 58.7395 186.619 58.4095C186.674 57.8045 186.784 57.1445 187.004 56.5945C187.224 55.9895 187.499 55.4395 187.884 54.9995C188.214 54.5045 188.599 54.1195 189.039 53.7895C189.809 53.1295 190.579 52.7995 191.129 52.5795C191.404 52.4695 191.624 52.4145 191.789 52.3595C191.954 52.3045 192.064 52.3045 192.064 52.3045C192.834 52.1395 193.604 52.5795 193.769 53.3495C193.934 54.1195 193.494 54.8895 192.724 55.0545C192.669 54.9445 192.614 54.9445 192.559 54.9445Z" fill="#D2E9FF"/>
<path d="M226.275 71.5553C226.275 71.5553 226.275 71.9403 226.165 72.5453C226.055 73.1503 225.89 73.9753 225.56 74.9653C225.23 75.9553 224.735 77.1103 223.8 78.1553C223.36 78.6503 222.81 79.1453 222.15 79.5303C221.82 79.6953 221.49 79.9153 221.16 80.0253L220.61 80.1903L220.115 80.3003C219.565 80.4653 218.74 80.5203 218.08 80.5203C217.365 80.5203 216.705 80.4103 216.1 80.3003C214.835 79.9703 213.79 79.4203 212.965 78.8153C212.14 78.2103 211.59 77.6053 211.205 77.1653C210.82 76.7253 210.655 76.4503 210.655 76.3953C210.435 76.1203 210.545 75.6803 210.82 75.4603C211.095 75.2403 211.535 75.3503 211.755 75.6253C211.755 75.5703 212.415 76.5603 213.9 77.4953C214.615 77.9353 215.55 78.3753 216.54 78.5403C217.035 78.6503 217.585 78.6503 218.08 78.5953C218.63 78.5403 219.015 78.4853 219.675 78.2653L220.06 78.1553L220.39 77.9903C220.61 77.8803 220.83 77.7703 220.995 77.6053C221.38 77.3303 221.71 76.9453 221.985 76.6153C222.535 75.8453 222.865 74.9653 223.085 74.1403C223.305 73.3153 223.36 72.6553 223.415 72.1603C223.47 71.6653 223.415 71.4453 223.415 71.4453C223.415 70.6753 224.075 70.0703 224.845 70.0703C225.67 70.1253 226.33 70.7303 226.275 71.5553Z" fill="#D2E9FF"/>
<path d="M182.605 117.039L180.295 110.604C180.295 110.604 185.63 109.779 182.825 102.794C181.23 98.8895 176.72 101.969 176.72 101.969C176.72 101.969 175.95 96.3045 170.065 97.5695C165.445 98.5595 165.335 105.984 167.15 108.349C168.91 110.714 170.725 110.494 170.725 110.494C170.725 110.494 166.875 110.384 167.48 113.904C168.085 117.424 171.11 117.589 173.42 116.434C174.52 115.884 175.345 114.509 175.345 114.509L180.35 118.634C180.79 119.019 181.45 119.074 182 118.799C182.605 118.524 182.88 117.754 182.605 117.039Z" fill="#D2E9FF"/>
<path d="M237.495 131.45C237.275 132.495 236.89 133.43 236.45 133.925C235.13 135.465 233.04 135.63 233.04 135.63C233.04 135.63 234.91 136.675 233.535 138.93C232.49 140.58 229.41 139.59 228.585 138.545C227.705 137.5 227.705 136.29 227.705 136.29L223.965 139.48C223.36 140.03 222.37 139.975 221.82 139.315C221.325 138.765 221.325 137.885 221.82 137.335L222.315 136.785L225.34 133.21C225.34 133.21 221.05 131.45 222.59 128.26C223.965 125.345 226.715 126.72 227.43 127.49C228.09 128.205 228.2 129.415 228.2 129.415C228.2 129.415 229.465 124.52 234.03 125.62C237.44 126.39 237.935 129.195 237.495 131.45Z" fill="#D2E9FF"/>
<path d="M120.564 198.715C121.444 199.925 121.499 201.575 120.619 202.84L120.289 203.28C119.959 203.72 119.464 203.94 118.969 203.94C118.584 203.94 118.254 203.83 117.924 203.555L112.644 198.935C112.644 198.935 110.059 204.93 103.019 203.555C98.1243 202.565 96.8594 198.385 97.4094 194.92C97.6294 193.215 98.2893 191.675 99.1694 190.74C100.709 189.09 102.689 188.87 104.119 188.925C102.689 188.485 100.654 187.33 99.8844 184.47C99.3894 182.655 99.4994 180.84 100.159 179.41C101.204 177.155 103.569 175.725 106.924 176.11C112.479 176.825 112.589 184.69 112.589 184.69C112.589 184.69 114.514 179.355 119.794 181.665C124.414 183.7 123.094 189.86 119.959 192.28C118.309 193.545 116.879 193.82 116.879 193.82L120.564 198.715Z" fill="#E1ECFF"/>
<path d="M108.63 189.915C108.63 189.915 106.375 189.475 104.175 188.87C102.745 188.43 100.71 187.33 99.8848 184.415C99.3898 182.6 99.4998 180.785 100.16 179.355C100.49 181.28 101.37 184.305 103.515 186.285C106.87 189.365 108.63 189.915 108.63 189.915Z" fill="#C5DFFF"/>
<path d="M120.289 203.224C119.959 203.664 119.464 203.884 118.969 203.884C118.584 203.884 118.254 203.774 117.924 203.499L112.644 198.879C112.644 198.879 110.059 204.874 103.019 203.499C98.1243 202.509 96.8594 198.329 97.4094 194.864C98.1794 196.514 99.8844 198.384 103.789 199.044C111.599 200.419 111.819 195.524 111.819 195.524L120.289 203.224Z" fill="#C5DFFF"/>
<path d="M141.245 186.56C140.53 186.56 138.165 186.395 136.02 184.415C133.875 182.435 132.775 179.3 132.72 175.175C132.61 165.44 130.74 164.12 128.705 163.515C125.845 162.69 122.765 163.79 122.765 163.79C121.665 164.23 120.455 163.68 120.015 162.58C119.575 161.48 120.125 160.27 121.225 159.83C121.39 159.775 125.57 158.18 129.86 159.39C135.58 161.04 136.845 166.595 136.9 175.065C136.955 177.925 137.615 180.07 138.77 181.225C139.87 182.27 141.135 182.27 141.135 182.27C142.29 182.16 143.28 183.15 143.335 184.305C143.39 185.46 142.51 186.45 141.355 186.505C141.41 186.56 141.355 186.56 141.245 186.56Z" fill="#950FFF"/>
<path d="M139.54 156.97C138.99 157.465 137.395 159.225 137.175 162.085C137.01 165 138.33 168.025 141.135 171.105C147.68 178.255 147.295 180.51 146.195 182.325C144.655 184.91 141.685 186.175 141.685 186.175C140.585 186.615 140.09 187.825 140.53 188.925C140.97 190.025 142.18 190.52 143.28 190.08C143.445 190.025 147.625 188.32 149.88 184.47C152.905 179.3 149.99 174.46 144.325 168.19C142.4 166.1 141.41 164.065 141.465 162.415C141.52 160.875 142.455 160.05 142.51 159.995C143.39 159.28 143.445 157.905 142.675 157.025C141.905 156.145 140.64 156.035 139.705 156.805C139.65 156.86 139.595 156.915 139.54 156.97Z" fill="#99ADF9"/>
<path d="M237 169.564C234.91 169.564 232.6 168.904 230.51 167.254C226.935 164.504 224.57 166.374 224.57 166.429C223.69 167.199 222.315 167.089 221.6 166.154C220.83 165.274 220.94 163.899 221.875 163.184C223.58 161.754 228.145 160.049 233.15 163.899C235.845 165.989 238.705 165.439 239.805 164.394C240.85 163.459 241.455 160.764 241.565 159.169C241.62 158.014 242.665 157.079 243.82 157.189C244.975 157.244 245.855 158.289 245.8 159.444C245.745 159.994 245.36 165.109 242.665 167.529C241.29 168.794 239.255 169.564 237 169.564Z" fill="#99ADF9"/>
<path d="M235.9 195.746L253.445 215.381C253.445 215.381 248.33 206.581 243.93 201.026C239.31 195.306 235.9 195.746 235.9 195.746Z" fill="#E1ECFF"/>
<path d="M249.705 204.766C249.705 204.766 245.195 199.376 244.535 198.551C242.775 196.406 241.51 195.746 241.51 195.746C241.51 195.746 243.105 195.526 245.195 198.166C247.285 200.751 249.705 204.766 249.705 204.766Z" fill="#E1ECFF"/>
<path d="M222.81 186.45L230.73 172.81L226 185.405L232.985 192.335L222.81 186.45Z" fill="#FEC272"/>
<path d="M235.185 179.63L223.8 185.735L226.605 186.78L235.185 179.63Z" fill="#FEC272"/>
<path d="M120.18 155.595L116.055 150.81C115.56 150.205 115.615 149.325 116.22 148.775C116.825 148.28 117.705 148.335 118.255 148.94C118.365 149.05 118.42 149.16 118.475 149.27L121.115 154.99C121.225 155.265 121.115 155.595 120.84 155.705C120.62 155.87 120.345 155.815 120.18 155.595Z" fill="#FEC272"/>
<path d="M116.385 160.82L108.63 161.59C107.86 161.645 107.145 161.095 107.09 160.325C107.035 159.555 107.585 158.84 108.355 158.785C108.465 158.785 108.575 158.785 108.685 158.785L116.385 159.72C116.715 159.775 116.88 160.05 116.88 160.325C116.825 160.6 116.66 160.82 116.385 160.82Z" fill="#FEC272"/>
<path d="M119.795 167.2L116 171.93C115.505 172.535 114.625 172.645 114.02 172.15C113.415 171.655 113.305 170.775 113.8 170.17C113.855 170.06 113.965 169.95 114.075 169.895L119.025 166.375C119.3 166.21 119.63 166.265 119.85 166.485C120.015 166.705 119.96 166.98 119.795 167.2Z" fill="#FEC272"/>
<path d="M142.785 152.79L145.7 148.94C146.085 148.445 146.745 148.39 147.24 148.72C147.735 149.105 147.79 149.765 147.46 150.26C147.405 150.315 147.35 150.425 147.24 150.48L143.39 153.395C143.225 153.56 142.95 153.505 142.785 153.34C142.675 153.175 142.675 152.955 142.785 152.79Z" fill="#FEC272"/>
<path d="M138.275 150.81L136.405 145.145C136.24 144.595 136.515 143.935 137.12 143.77C137.67 143.605 138.33 143.88 138.495 144.485C138.495 144.54 138.55 144.65 138.55 144.705L139.1 150.645C139.1 150.865 138.935 151.085 138.715 151.085C138.495 151.085 138.33 150.975 138.275 150.81Z" fill="#FEC272"/>
<path d="M134.039 154.385L129.859 152.295C129.309 152.02 129.089 151.36 129.364 150.81C129.639 150.26 130.299 150.04 130.849 150.315C130.959 150.37 131.014 150.425 131.124 150.48L134.589 153.615C134.754 153.78 134.809 154.055 134.644 154.275C134.424 154.44 134.204 154.495 134.039 154.385Z" fill="#FEC272"/>
<path d="M244.976 147.235L243.986 152.9C243.931 153.23 243.656 153.395 243.326 153.34C243.051 153.285 242.886 153.065 242.831 152.845L242.116 147.125C242.006 146.355 242.556 145.64 243.381 145.53C244.151 145.42 244.866 145.97 244.976 146.795C245.031 146.96 245.031 147.07 244.976 147.235Z" fill="#FEC272"/>
<path d="M254.931 152.569L249.156 156.364C248.771 156.584 248.276 156.529 248.056 156.144C247.836 155.814 247.891 155.374 248.166 155.099L253.226 150.369C253.776 149.819 254.711 149.874 255.206 150.424C255.756 150.974 255.701 151.909 255.151 152.404C255.041 152.459 254.986 152.514 254.931 152.569Z" fill="#FEC272"/>
<path d="M253.996 164.669L249.046 162.304C248.716 162.139 248.551 161.754 248.716 161.369C248.826 161.094 249.156 160.929 249.431 160.984L254.821 161.919C255.591 162.029 256.141 162.799 255.976 163.569C255.866 164.339 255.096 164.889 254.326 164.724C254.271 164.779 254.161 164.724 253.996 164.669Z" fill="#FEC272"/>
<path d="M176.5 137.72C176.5 137.72 153.345 165.44 152.465 164.725C152.245 164.56 151.86 163.295 151.365 161.26C150.045 155.485 148.23 143.385 148.01 130.515C147.735 113.19 148.175 107.91 152.795 105.765C156.205 104.17 165.5 119.515 171.605 129.8C173.805 133.32 175.51 136.235 176.5 137.72Z" fill="#950FFF"/>
<path d="M176.5 137.72C176.5 137.72 153.345 165.44 152.465 164.725C152.245 164.56 151.86 163.295 151.365 161.26C153.62 155.485 156.37 149.38 159.395 144.76C164.29 137.39 168.69 132.605 171.605 129.8C173.805 133.32 175.51 136.235 176.5 137.72Z" fill="#A42BFF"/>
<path d="M256.69 233.035C255.26 236.005 242.005 231.88 231.17 228.14C229.08 227.425 227.045 226.71 225.175 226.05C220.885 224.565 218.025 220.495 218.025 215.93C218.08 205.315 217.09 188.43 219.125 187.55C221.545 186.45 233.535 198.275 244.48 210.98C255.81 224.125 258.835 228.47 256.69 233.035Z" fill="#950FFF"/>
<path d="M231.17 228.141C229.08 227.426 227.045 226.711 225.175 226.051C220.885 224.566 218.025 220.496 218.025 215.931C218.08 205.316 217.09 188.431 219.125 187.551C219.18 187.551 223.69 201.521 226.77 212.521C228.53 218.901 230.015 224.126 231.17 228.141Z" fill="#A42BFF"/>
<path d="M223.249 160.05C222.864 175.065 220.664 200.035 211.699 224.785C203.944 246.235 197.234 260.48 192.779 268.895C189.094 275.825 186.949 278.905 186.949 278.905C186.949 278.905 181.119 281.82 169.899 282.7C163.629 283.195 155.709 283.085 146.194 281.49C119.574 277.035 116.769 268.675 116.769 268.675C116.769 268.675 116.384 263.89 117.649 254.485C119.244 242.385 123.644 222.695 135.139 195.8C148.064 165.715 162.804 148.005 171.934 139.04C177.324 133.76 180.789 131.505 180.789 131.505C180.789 131.505 187.939 128.59 202.734 133.21C208.619 135.025 213.074 137.39 216.209 139.645C221.049 143 223.029 145.97 223.029 145.97C223.029 145.97 223.524 151.36 223.249 160.05Z" fill="#E1ECFF"/>
<path d="M223.249 160.05C222.864 175.065 220.664 200.035 211.699 224.785C203.944 246.235 197.234 260.48 192.779 268.895C189.094 275.825 186.949 278.905 186.949 278.905C186.949 278.905 181.119 281.82 169.899 282.7C177.049 272.91 187.664 255.915 198.224 230.175C215.384 188.375 216.429 151.635 216.264 139.645C221.104 143 223.084 145.97 223.084 145.97C223.084 145.97 223.524 151.36 223.249 160.05Z" fill="#C5DFFF"/>
<path d="M123.919 252.121C123.754 252.121 123.644 252.121 123.479 252.066C121.939 251.846 120.894 250.361 121.114 248.821C121.279 247.886 124.799 225.226 134.534 202.401C144.269 179.631 151.969 168.466 152.299 167.971C153.179 166.706 154.939 166.376 156.259 167.256C157.524 168.136 157.854 169.896 156.974 171.216C156.919 171.326 149.219 182.436 139.759 204.601C130.299 226.766 126.724 249.426 126.724 249.646C126.449 251.131 125.239 252.121 123.919 252.121Z" fill="#F8FBFF"/>
<path d="M223.249 160.051C221.324 158.346 218.849 156.366 215.879 154.331C214.669 153.506 213.349 152.626 211.919 151.746C211.149 151.306 210.379 150.811 209.554 150.371C206.309 148.501 202.624 146.741 198.609 145.201C198.279 145.091 198.004 144.981 197.674 144.871C197.069 144.651 196.519 144.431 195.969 144.266C191.349 142.616 187.279 141.516 183.814 140.746C182.824 140.526 181.834 140.361 180.954 140.141C177.104 139.426 174.134 139.206 172.044 139.096C177.434 133.816 180.899 131.561 180.899 131.561C180.899 131.561 183.099 130.681 187.609 130.681C188.599 130.681 189.699 130.736 190.909 130.846C193.769 131.066 197.234 131.671 201.304 132.826C201.799 132.991 202.349 133.101 202.844 133.266C203.229 133.376 203.614 133.486 203.999 133.651C207.189 134.751 209.939 135.961 212.249 137.171C213.184 137.666 214.009 138.161 214.834 138.711C215.384 139.041 215.824 139.371 216.319 139.701C221.159 143.056 223.139 146.026 223.139 146.026C223.139 146.026 223.524 151.361 223.249 160.051Z" fill="#A027FF"/>
<path d="M223.249 160.05C221.324 158.345 218.849 156.365 215.879 154.33C216.319 147.895 216.319 142.89 216.319 139.7C221.159 143.055 223.139 146.025 223.139 146.025C223.139 146.025 223.524 151.36 223.249 160.05Z" fill="#A027FF"/>
<path d="M214.833 138.71L212.303 151.085C212.248 151.36 212.138 151.58 211.918 151.8C211.148 151.36 210.378 150.865 209.553 150.425L212.248 137.225C213.183 137.72 214.063 138.215 214.833 138.71Z" fill="#8C14EB"/>
<path d="M203.999 133.65L198.609 145.2C198.279 145.09 198.004 144.98 197.674 144.87C197.069 144.65 196.519 144.43 195.969 144.265L201.249 132.825C201.744 132.99 202.294 133.1 202.789 133.265C203.229 133.43 203.614 133.54 203.999 133.65Z" fill="#8C14EB"/>
<path d="M190.908 130.845C190.853 130.955 190.798 131.065 190.743 131.175L183.813 140.745C182.823 140.525 181.833 140.36 180.953 140.14C181.008 139.92 181.063 139.7 181.228 139.48L187.608 130.625C188.598 130.68 189.698 130.735 190.908 130.845Z" fill="#8C14EB"/>
<path d="M151.113 261.812C164.042 266.248 179.51 255.309 185.661 237.38C191.811 219.451 186.316 201.321 173.387 196.885C160.457 192.45 144.989 203.388 138.839 221.317C132.688 239.246 138.183 257.376 151.113 261.812Z" fill="#C5DFFF"/>
<path d="M152.884 260.405C165.814 264.84 181.226 254.065 187.307 236.337C193.389 218.609 187.838 200.642 174.908 196.207C161.979 191.771 146.567 202.547 140.485 220.274C134.403 238.002 139.955 255.969 152.884 260.405Z" fill="#1C3177"/>
<path d="M154.164 254.266C164.422 257.785 176.724 249.015 181.643 234.677C186.562 220.34 182.234 205.865 171.976 202.346C161.719 198.827 149.416 207.597 144.497 221.934C139.579 236.272 143.907 250.747 154.164 254.266Z" fill="#99ADF9"/>
<path d="M159.366 219.968C162.297 220.973 165.815 218.457 167.225 214.348C168.634 210.24 167.401 206.094 164.471 205.089C161.54 204.083 158.021 206.599 156.612 210.708C155.202 214.816 156.435 218.962 159.366 219.968Z" fill="#C5DFFF"/>
<path d="M152.645 238.036C154.225 238.578 156.113 237.248 156.862 235.064C157.612 232.88 156.938 230.671 155.357 230.129C153.777 229.586 151.889 230.917 151.14 233.101C150.391 235.284 151.064 237.494 152.645 238.036Z" fill="#C5DFFF"/>
<path d="M181.669 234.685C176.719 249.04 164.454 257.785 154.169 254.265C148.779 252.395 144.984 247.5 143.389 241.175C144.709 242.055 146.139 242.825 147.679 243.32C160.439 247.72 175.784 236.775 181.889 218.9C182.274 217.8 182.604 216.7 182.879 215.6C184.254 221.265 183.979 228.03 181.669 234.685Z" fill="#7C99F2"/>
<path d="M192.834 268.951C189.149 275.881 187.004 278.961 187.004 278.961C187.004 278.961 181.174 281.876 169.954 282.756C163.684 283.251 155.764 283.141 146.249 281.546C136.404 279.896 129.859 277.696 125.459 275.606C117.979 272.031 116.824 268.731 116.824 268.731C116.824 268.731 116.439 263.946 117.704 254.541C120.014 256.686 123.094 259.106 127.164 261.361C133.434 264.826 141.959 268.071 153.564 269.776C162.254 271.041 170.559 271.206 177.984 270.711C183.484 270.436 188.489 269.721 192.834 268.951Z" fill="#950FFF"/>
<path d="M192.834 268.95C189.149 275.88 187.004 278.96 187.004 278.96C187.004 278.96 181.174 281.875 169.954 282.755C172.319 279.51 175.014 275.55 177.984 270.71C183.484 270.435 188.489 269.72 192.834 268.95Z" fill="#A42BFF"/>
<path d="M127.164 261.415L125.459 275.66C117.979 272.085 116.824 268.785 116.824 268.785C116.824 268.785 116.439 264 117.704 254.595C120.014 256.74 123.094 259.105 127.164 261.415Z" fill="#A42BFF"/>
</svg>
